<?xml version="1.0" encoding="UTF-8" standalone="no"?>
<svg
    xmlns:inkscape="http://www.inkscape.org/namespaces/inkscape"
    xmlns:rdf="http://www.w3.org/1999/02/22-rdf-syntax-ns#"
    xmlns="http://www.w3.org/2000/svg"
    xmlns:dc="http://purl.org/dc/elements/1.1/"
    xmlns:ns1="http://sozi.baierouge.fr"
    xmlns:cc="http://web.resource.org/cc/"
    xmlns:xlink="http://www.w3.org/1999/xlink"
    xmlns:sodipodi="http://sodipodi.sourceforge.net/DTD/sodipodi-0.dtd"
    version="1.0"
    viewBox="0 0 683.000000 800.000000"
>
    <g
        transform="translate(0 800) scale(0.1 -0.1)"
        fill="#000000"
    >
        <path
            d="m4258 7270c-69-144-127-341-178-602-19-95-27-118-40-118-14 0-19 19-29 113-13 124-41 526-41 597 0 26-4 40-9 35-27-29-156-488-181-648-11-64-16-77-31-77-17 0-19 9-19 108 0 192-29 526-48 556-5 9-48-177-113-492-16-78-38-159-48-180-134-263-1040-1253-1241-1357-16-8-121-40-232-69-235-63-322-93-470-166l-106-52 3-149c5-169 16-243 51-338 24-66 99-177 130-194 11-6 44-4 93 4 108 20 300 18 381-4 152-41 353-167 474-298 124-134 218-294 262-449 35-122 32-257-7-340-33-69-88-124-161-161-98-49-540-175-998-284-332-79-377-87-532-92-82-3-148-7-148-9 0-38 70-119 129-148 83-42 131-46 544-46 369 1 503-6 558-29 13-6 67-41 119-79l95-70 3 85 3 84 117-62c64-34 159-88 211-121l94-58-6 45c-7 49-35 111-74 163-31 42-19 63 24 43 60-27 262-152 338-209l80-60 3 39c5 67-35 180-99 277l-22 33 39-16c139-57 266-190 358-373 43-86 102-256 112-325l6-48 30 28c38 35 67 91 88 168 22 78 42 79 53 5 11-72 14-630 3-695-8-50-8-50 12-31 25 22 94 153 126 238 15 40 30 64 41 67 17 3 17-5 11-100-4-57-20-207-36-333-16-127-28-231-26-233 6-6 80 86 141 177 66 97 132 231 166 337 30 95 49 97 49 6 0-72-15-281-26-372-6-51-6-53 14-42 48 26 136 119 182 193 45 73 83 175 133 353l14 50 16-35c19-45 34-145 43-292l7-118 30 18c44 26 259 234 341 331 336 399 663 983 944 1686 105 265 154 417 257 805 107 403 162 573 229 706l52 104h-46c-58 0-127-20-244-72-50-22-113-49-139-59-46-18-47-18-38 0 38 70 218 291 394 483 59 64 107 120 107 124s-33 4-73 1c-147-13-307-81-408-175-52-48-79-59-79-32 0 32 226 311 396 489l89 94-50-7c-116-17-360-115-518-209-43-26-83-47-87-47-26 0-15 29 42 108 138 191 306 365 488 505l65 50-62-7c-136-15-300-78-443-170-56-36-75-44-86-36-11 10 2 33 68 123 124 172 200 266 283 356 43 44 70 81 62 81-30 0-154-43-242-84-49-24-135-73-189-110-63-43-102-64-108-58-7 7 4 36 28 83 38 72 193 311 273 422 23 31 39 57 36 57-12 0-214-119-352-208l-138-89-1-154c-1-138-3-161-26-226-36-101-103-196-211-299-145-139-423-344-587-433l-69-37 106-85c118-92 387-350 466-444l50-60-56-5-57-5 45-75c62-105 197-441 183-456-3-2-37 7-77 21-46 15-71 20-68 12 3-6 24-56 46-109 23-53 52-138 66-190 23-89 47-258 36-258-3 0-37 30-74 67l-69 68 5-40c22-147 18-583-5-569-5 3-29 33-53 65l-44 59-5-47c-21-168-57-357-82-423-3-9-20 10-49 55-25 39-45 62-45 53-1-54-161-458-182-458-4 0-8 15-9 33 0 17-3 50-7 72l-7 40-35-50c-18-27-61-79-94-114-61-63-198-181-212-181-4 0-4 39-1 87l6 87-47-46c-26-24-65-58-87-75-55-42-170-104-178-96-15 15-5 30 32 46 93 42 214 141 300 247l20 25-5-85c-3-47-7-93-9-103-5-27 6-21 81 42 93 80 157 158 215 264 31 56 28 59 47-43l8-45 27 59c50 108 97 244 109 315 7 39 15 71 18 71s23-30 44-66c28-47 41-62 47-52 20 36 69 347 69 439 0 40 35 18 70-43l35-61 7 84c12 128-3 393-28 513-6 28-1 24 72-42 43-39 79-70 81-69 1 2-7 46-18 100-23 115-62 223-123 346-26 50-42 91-38 91 5 0 42-11 82-25s75-25 77-25c28 0-130 361-203 463-19 26-34 49-34 52 0 2 26 5 58 7l57 3-155 155c-161 162-324 303-422 368-31 20-57 40-58 43 0 3 17 11 38 17 92 28 388 228 587 397 130 111 207 200 258 304l42 84v156c0 86-5 212-12 281-20 218 10 442 88 649 55 148 52 166-26 137-54-21-151-121-309-319-233-292-292-396-406-717-122-343-230-532-433-763-40-45-63-65-70-58-12 12-1 27 88 131 179 206 276 390 421 795 84 237 168 378 388 650 44 55 98 119 120 143 21 23 37 45 34 47-3 3-63-34-134-81-396-265-593-486-916-1029-193-324-288-470-354-543-82-91-92-65-12 34 81 102 149 205 283 434 150 256 250 411 351 546l54 72-1 263c-1 145-4 298-8 339l-6 75-64-99c-102-158-182-348-222-529-9-43-16-57-28-55-25 5-40 135-54 468l-12 295-37-75zm-770-2101c62-27 114-70 158-134 31-45 35-58 24-65-10-6-22 4-46 38-101 151-236 190-398 114-52-24-71-29-77-20-14 22 91 73 178 87 60 9 106 4 161-20zm-77-65c17-8 37-30 45-50 29-69-27-134-117-134-33 0-47 6-75 34-91 91 28 212 147 150z"
        />
        <path
            d="m3286 5079c-32-25-35-75-7-110 15-19 29-24 66-24 39 0 51 5 71 28 32 37 30 62-5 98-36 36-86 39-125 8z"
        />
        <path
            d="m5019 7249c-30-45-89-169-136-282-47-114-95-249-90-253 1-1 58 53 127 120l125 121-5 160c-5 151-6 158-21 134z"
        />
        <path
            d="m3236 7062c-8-15-19-63-25-106-12-84-14-643-3-714l7-42 89 112c135 172 196 268 212 335l13 58-54 95c-29 52-76 130-104 172-81 124-108 142-135 90z"
        />
        <path
            d="m5700 6868c-63-33-122-66-130-74-11-11-15-48-18-157l-4-142 87 140c48 76 110 172 137 213 27 40 48 75 46 77s-55-23-118-57z"
        />
        <path
            d="m1074 5298c-20-18-45-51-55-74-26-58-40-200-29-289 15-119 19-128 47-120 14 3 38 9 54 12 33 6 33 6 19 88-14 84-14 328 0 371 7 19 10 38 7 40-3 3-22-10-43-28z"
        />
        <path
            d="m1368 4893c-38-40-64-104-83-208-32-165-8-318 70-450 47-81 181-211 292-285 239-158 429-160 569-7 27 29 64 81 82 116l33 62-63 28c-93 42-141 56-146 43-10-30-51-78-82-96-46-28-146-28-215-2-131 50-250 156-305 271-51 107-70 202-78 385-7 155-8 165-27 168-12 2-32-9-47-25z"
        />
        <path
            d="m1155 4814c-185-53-283-67-446-68l-147-1 34-37c42-47 57-76 84-167 29-96 25-242-9-308-32-64-102-92-147-59-23 17-12 31 24 31 23 0 27 5 35 44 13 64 2 108-28 115-20 5-39-4-90-41-69-51-84-77-64-115 7-12 58-71 113-131 150-160 204-180 369-138 72 19 472 175 491 192 5 5-3 23-18 44-36 47-82 147-101 220-28 109-14 317 29 418 18 44 26 44-129 1z"
        />
        <path
            d="m370 4741c-5-11-10-60-10-109v-89l70-32c78-35 100-38 100-16 0 16 25 21 34 6 3-5-1-28-9-51-8-24-14-44-13-45 2 0 15-6 31-13 36-16 50-54 44-125-6-62 3-65 30-14 28 51 25 233-5 311-37 99-66 134-138 167-75 34-119 37-134 10z"
        />
        <path
            d="m1815 4220c-92-14-109-20-98-31 6-6 25-6 54 0 65 15 164 13 237-5 54-14 66-14 73-3 13 20 11 26-8 33-30 12-196 15-258 6z"
        />
        <path
            d="m1322 4073c-67-28-67-44 2-36 52 7 108 32 103 47-6 19-40 15-105-11z"
        />
        <path
            d="m2346 4071l-15-29 57-37c92-61 242-219 284-300 54-105 71-174 65-264-3-42-8-85-11-96-5-17 5-26 64-58l70-37v68c0 144-74 334-188 489-64 85-190 210-264 261l-47 32-15-29z"
        />
        <path
            d="m1135 3490c13-139 10-133 61-127 25 2 47 7 50 10 5 4-85 147-108 172-6 6-7-15-3-55z"
        />
        <path
            d="m1450 3385c0-209 41-348 161-550 45-76 67-104 78-101 9 3 72 19 141 36s131 33 138 35c9 3-11 24-49 53-155 115-279 269-369 457-32 66-64 137-71 158-7 20-17 37-21 37s-8-56-8-125z"
        />
        <path
            d="m414 3456c-9-25 27-74 133-177 155-152 238-183 488-183 132 0 291 13 379 30 26 6 28 9 22 38-4 17-11 66-16 110-5 43-11 80-13 82-1 2-48-4-102-13-64-10-166-17-285-17-216-1-256 7-420 84-122 57-177 70-186 46z"
        />
        <path
            d="m1905 3424c-22-2-109-11-192-20-122-13-153-20-153-32 0-18 76-161 104-196l21-26 145 11c80 7 339 12 577 13 417 1 432 2 437 20 6 25-7 35-119 90-228 114-518 163-820 140z"
        />
        <path
            d="m2474 3100c-45-21-184-73-310-116-126-42-232-80-237-84-4-3 17-23 47-44l55-38 153 42c453 123 558 165 618 250l21 30-133-1c-133-1-133-1-214-39z"
        />
        <path
            d="m1353 3087c-52-6-83-14-83-22 0-26 169-255 188-255 13 0 104 21 110 25 2 1-7 19-19 40-12 20-39 78-60 128s-41 92-46 93c-4 0-45-4-90-9z"
        />
        <path
            d="m1495 2784c-33-7-91-14-130-14-166-2-284-27-327-70-51-51-41-60 70-60 126 1 215 12 389 51l142 32-22 38c-24 43-30 44-122 23z"
        />
    </g>
    <metadata>
        <rdf:RDF>
            <cc:Work>
                <dc:format>image/svg+xml</dc:format>
                <dc:type
                    rdf:resource="http://purl.org/dc/dcmitype/StillImage"
                />
                <cc:license
                    rdf:resource="http://creativecommons.org/licenses/publicdomain/"
                />
                <dc:publisher>
                    <cc:Agent
                        rdf:about="http://openclipart.org/"
                    >
                        <dc:title>Openclipart</dc:title>
                    </cc:Agent>
                </dc:publisher>
            </cc:Work>
            <cc:License
                rdf:about="http://creativecommons.org/licenses/publicdomain/"
            >
                <cc:permits
                    rdf:resource="http://creativecommons.org/ns#Reproduction"
                />
                <cc:permits
                    rdf:resource="http://creativecommons.org/ns#Distribution"
                />
                <cc:permits
                    rdf:resource="http://creativecommons.org/ns#DerivativeWorks"
                />
            </cc:License>
        </rdf:RDF>
    </metadata>
</svg>