<?xml version="1.0"?>
<svg xmlns:rdf="http://www.w3.org/1999/02/22-rdf-syntax-ns#" xmlns="http://www.w3.org/2000/svg" xmlns:cc="http://web.resource.org/cc/" xmlns:dc="http://purl.org/dc/elements/1.1/" xmlns:svg="http://www.w3.org/2000/svg" id="svg2" viewBox="0 0 232 302" version="1.1">
  <g id="layer1" transform="translate(0 -750.36)">
    <g id="g2816" transform="translate(-120.29 -46.068)">
      <path id="path2818" fill="#010101" d="m226.84 1096.1c0.44469-1.7717-0.1862-3.1283-2.5579-5.5-1.7315-1.7314-3.7885-3.1481-4.5712-3.1481-1.0167 0-1.4231-1.2657-1.4231-4.4326 0-3.5212 0.40221-4.5603 1.9561-5.0535 3.5512-1.1271 7.0439-6.3404 7.0439-10.514 0-4.1635-3.4906-9.3862-7.0226-10.507-1.8828-0.5976-1.942-2.3405-2.2061-64.971-0.14924-35.396-0.64561-64.731-1.103-65.189-0.45744-0.45811-12.921-0.96595-27.697-1.1286-25.428-0.27981-26.898-0.39785-27.472-2.2061-1.1141-3.5101-6.3474-6.9983-10.499-6.9983-4.1735 0-9.3868 3.4927-10.514 7.0439-0.49318 1.5539-1.5323 1.9561-5.0534 1.9561-3.1669 0-4.4326-0.40634-4.4326-1.4231 0-0.78269-1.4167-2.8397-3.1482-4.5712-2.3717-2.3717-3.7282-3.0026-5.5-2.5579l-2.3518 0.59027v-20.076l2.3518 0.59027c1.7718 0.44469 3.1283-0.1862 5.5-2.5579 1.7315-1.7315 3.1482-3.7885 3.1482-4.5712 0-1.0167 1.2657-1.4231 4.4326-1.4231 3.5212 0 4.5603 0.40221 5.0534 1.9561 1.1271 3.5512 6.3404 7.0439 10.514 7.0439 4.1521 0 9.3854-3.4882 10.499-6.9983 0.57391-1.8082 2.0438-1.9263 27.472-2.2061 14.776-0.1626 27.24-0.6698 27.697-1.1271 0.45744-0.45732 0.96642-11.797 1.1311-25.198 0.28194-22.949 0.41027-24.402 2.2061-24.972 3.5068-1.113 6.9946-6.3479 6.9946-10.498 0-4.1735-3.4927-9.3868-7.0439-10.514-1.5539-0.49318-1.9561-1.5323-1.9561-5.0534 0-3.1669 0.40634-4.4326 1.4231-4.4326 0.7827 0 2.8398-1.4167 4.5712-3.1482 2.3717-2.3717 3.0026-3.7282 2.5579-5.5l-0.59027-2.3518h20.076l-0.59027 2.3518c-0.44469 1.7718 0.1862 3.1283 2.5579 5.5 1.7315 1.7315 3.7885 3.1482 4.5712 3.1482 1.0167 0 1.4231 1.2657 1.4231 4.4326 0 3.5212-0.40221 4.5603-1.9561 5.0534-3.5512 1.1271-7.0439 6.3404-7.0439 10.514 0 4.1504 3.4878 9.3853 6.9946 10.498 1.7958 0.56997 1.9241 2.0226 2.2061 24.972 0.16465 13.402 0.67363 24.741 1.1311 25.198 0.45744 0.45733 12.921 0.96453 27.697 1.1271 25.428 0.27981 26.898 0.39785 27.472 2.2061 1.1141 3.5101 6.3474 6.9983 10.499 6.9983 4.1735 0 9.3868-3.4927 10.514-7.0439 0.49318-1.5539 1.5323-1.9561 5.0534-1.9561 3.1669 0 4.4326 0.40634 4.4326 1.4231 0 0.78269 1.4167 2.8397 3.1482 4.5712 2.3717 2.3717 3.7282 3.0026 5.5 2.5579l2.3518-0.59027v20.076l-2.3518-0.59027c-1.7718-0.44469-3.1283 0.1862-5.5 2.5579-1.7315 1.7315-3.1482 3.7885-3.1482 4.5712 0 1.0167-1.2657 1.4231-4.4326 1.4231-3.5212 0-4.5603-0.40221-5.0534-1.9561-1.1271-3.5512-6.3404-7.0439-10.514-7.0439-4.1521 0-9.3854 3.4882-10.499 6.9983-0.57391 1.8082-2.0438 1.9263-27.472 2.2061-14.776 0.1626-27.24 0.67044-27.697 1.1286-0.45744 0.4581-0.95382 29.793-1.1031 65.189-0.26406 62.63-0.32324 64.373-2.2061 64.971-3.532 1.121-7.0226 6.3437-7.0226 10.507 0 4.1735 3.4927 9.3868 7.0439 10.514 1.5539 0.4932 1.9561 1.5323 1.9561 5.0535 0 3.1669-0.40634 4.4326-1.4231 4.4326-0.78269 0-2.8397 1.4167-4.5712 3.1481-2.3717 2.3717-3.0026 3.7283-2.5579 5.5l0.59027 2.3519h-20.076l0.59027-2.3519z"/>
    </g>
  </g>
  <metadata>
    <rdf:RDF>
      <cc:Work>
        <dc:format>image/svg+xml</dc:format>
        <dc:type rdf:resource="http://purl.org/dc/dcmitype/StillImage"/>
        <cc:license rdf:resource="http://creativecommons.org/licenses/publicdomain/"/>
        <dc:publisher>
          <cc:Agent rdf:about="http://openclipart.org/">
            <dc:title>Openclipart</dc:title>
          </cc:Agent>
        </dc:publisher>
        <dc:title>Simple Fancy Cross</dc:title>
        <dc:date>2010-04-01T00:39:38</dc:date>
        <dc:description>Simple Fancy Cross</dc:description>
        <dc:source>http://openclipart.org/detail/35683/simple-fancy-cross-by-ramchand</dc:source>
        <dc:creator>
          <cc:Agent>
            <dc:title>Ramchand</dc:title>
          </cc:Agent>
        </dc:creator>
        <dc:subject>
          <rdf:Bag>
            <rdf:li>Anglican</rdf:li>
            <rdf:li>Catholic</rdf:li>
            <rdf:li>Christ</rdf:li>
            <rdf:li>Christian</rdf:li>
            <rdf:li>Jesus</rdf:li>
            <rdf:li>clip art</rdf:li>
            <rdf:li>clipart</rdf:li>
            <rdf:li>cross</rdf:li>
            <rdf:li>crucify</rdf:li>
          </rdf:Bag>
        </dc:subject>
      </cc:Work>
      <cc:License rdf:about="http://creativecommons.org/licenses/publicdomain/">
        <cc:permits rdf:resource="http://creativecommons.org/ns#Reproduction"/>
        <cc:permits rdf:resource="http://creativecommons.org/ns#Distribution"/>
        <cc:permits rdf:resource="http://creativecommons.org/ns#DerivativeWorks"/>
      </cc:License>
    </rdf:RDF>
  </metadata>
</svg>
