<?xml version="1.0" encoding="UTF-8"?>
<!-- Created with Inkscape (http://www.inkscape.org/) -->
<svg width="752" height="675.2" version="1.1" viewBox="0 0 752 675.2" xmlns="http://www.w3.org/2000/svg" xmlns:cc="http://creativecommons.org/ns#" xmlns:dc="http://purl.org/dc/elements/1.1/" xmlns:rdf="http://www.w3.org/1999/02/22-rdf-syntax-ns#"><metadata><rdf:RDF><cc:Work rdf:about=""><dc:format>image/svg+xml</dc:format><dc:type rdf:resource="http://purl.org/dc/dcmitype/StillImage"/><dc:title/></cc:Work></rdf:RDF></metadata><path d="m281.09 667.39-8.8-.71179-6.4-1.5983-12-1.7665-11.2-3.1551-15.2-4.9553-14.285-7.3848-8.1146-7.4458 1.0308-1.0517 11.769 3.6974 28.8-.0756 16.897-4.2204 12.398-4.9252 8.3049-4.2075 13.6-9.2025 11.243-10.169 22.357-18.528 17.926-12.672 12.157-7.7569 15.553-7.7014 11.964-2.6629 8.1937-.85976 1.0586 1.7129-4.8082 2.4864-6.0442 4.0263-7.375 7.2278-4.5925 9.0768-.61304 10.849-16.22 9.8683-40.8 24.653-1.0924 1.0614-1.0924 1.0614 2.2459 1.4716 2.2459 1.4716 16.981.58123 20.293-6.7483 5.6401 4.9521 4.3784 2.1809 7.5489 2.0427 30.051-1.0386 10-.89717v1.3925l-11.985 9.2257-17.215 8.5256-15.2 4.9104-8.7708 2.6418-17.629 3.2169-8.8 1.4166-45.6.69619-8.8-.71178zm354-15.157-12.4-2.2114-9.6-2.7177-14.4-4.0056-12-3.7424-29.6-8.2281-14.4-3.9703-11.2-3.1062-10.4-2.5944-16.8-3.9814-18.764-3.672-2.8356-1.1098-28-4.0044-17.6-1.4401-26.4.21558-11.2 1.2002-17.6 2.6146-12 6.0656-18.427 9.7788-14.456 4.8433-8.9725 1.0545-7.4402-1.1157.31286-.93858.31286-.93857 17.47-9.3117 15.2-8.0916 25.6-13.222 20-4.1327 15.2-1.7252 36.126-.95898 33.474 1.9739 20 2.1618 26.4 3.3366 2.4.737 27.2 4.1264 24.8 3.8924 29.6 4.1259 9.6 1.3568 31.2 1.8218 13.6-.9885 11.86-1.661 2.5398-1.3092 8-2.789 6.5518-4.459 5.1384-5.8524 4.2414-9.0415.0684-18.4-5.1723-10.92-10.072-10.072-9.381-6.001-9.775-4.8566-20-7.539-21.6-5.9204-10.4-2.908-19.2-5.1351-12.8-4.0764-10.4-3.7775-13.304-6.5893-7.8762-6.2258-4.8052-8.3788-.007-4.5622-.007-4.5622 9.7132-29.276 1.5802-7.6 1.5802-7.6.0132-4.8472.0132-4.8472-.95896-3.9528-.95896-3.9528-6.9853-13.693-8.8161-10.688-10.781-8.9434-14.47-8.6759h-1.7897l-.55285 3.2722-.55284 3.2722-6.3004 12.588-9.9345 10.262-10.4 7.1581-2.1182 1.2151.54292-8.2837.5429-8.2838-1.8257-9.9324-2.0011-4.5248-2.0011-4.5248-8.9572-9.3907-10.337-5.6818-9.8456-2.641-22.34-.59281-3.26 1.4667-6.4 1.9995-7.604 4.7916-7.43 8.2306-5.5352 11.777-2.3588 14.623-1.072 4.1269-15.2-3.7904-18.4.71507-10.751 4.1041-2.8492 1.5442-16.8 9.9678-6.8816 4.6652-9.7909 5.5341-11.328 4.6277-11.2 3.209-13.42 3.2962h-5.6591l1.6492-1.8 1.6492-1.8 3.6212-7.2.0797-5.732.0797-5.732-.60835-.60969-.60834-.60971-4.7193 4.5214-.9246 4.481-.92461 4.481-1.474 2.9026-1.474 2.9026-9.7804 8.8508-13.886 6.7408-2.4193 1.1789-9.3709 2.7242-5.9087 3.73-7.5142 8.3576-6.191 13.031-2.6162 12.651-4.7828 13.93-1.0145 7.4013h5.1757l5.5694 2.6428 3.8427 8.689 7.1792 7.9849.5026 2.6791.5026 2.6791-.54087 2.4625-.54086 2.4625h-1.4404l-3.2531-6.3766-3.5794-2.3339-6.6746-1.4913-4.8702-3.4679-4.8552 2.5107v2.5941l5.7611 7.0306.81788 6.0978-4.9015 3.4902-8.4775 3.7934-5.8354 6.1529-4.7501 9.0232-.99784 5.2884-.99785 5.2884h-1.2229l-1.0846-1.3069-1.0846-1.3069.0138-4.4931.0138-4.4931 4.5353-14.148-1.8528-3.4521-2.1515-3.7351.41527-1.588.41525-1.5879 8.4472-6.3777.88693-2.3113h-5.6012l-5.9486 2.4288-11.28 11.971h-8.1874l-6.9326 3.007-6.2061 6.193-2.1939 5.1486-.0244 6.0514-1.2805 2.0171-3.2979-3.6171-1.9585-6.1132 1.8453-7.3285 2.4955-4.9583 5.9768-7.2 4.5867-9.37 1.8807-.71503 1.8807-.71502h13.496v-6.4502l-2.6181-1.0046-14.796 2.0314-4.5599-2.1855-3.7462-6.791h-3.1315l-2.9743 1.2379-2.9743 1.2379-6.7436 6.6021-.48161-1.255-.48161-1.255.93284-3.4643.93284-3.4643 5.1478-4.855 17.68-5.9141 6.2134 1.7125 9.5293 4.8068 11.502-.73812 7.0864-4.1529 1.8878-6.3011 8.6785-10.588.5416-4.3348.5416-4.3348-2.7266-16.238.49884-2.6591.49885-2.6591 4.733-6.9843.0146-4.0256.0146-4.0257-2.4766-8.7487-2.4969-10.4-.046-16.8 2.4776-10h-.64989l-3.0563 6.8-1.0476 4.6599-3.4051-3.4051-4.8992-9.957-8.6901-6.015-1.3233-2.3646 3.4067-2.7613 3.4067-2.7613 12-7.8238 10.4-4.9555 6.9935-2.9464-1.6079-.71746-1.6079-.71747-8.6784 2.5229-15.899 7.8878-13.412 8.9043-4.1885-3.2454-3.8317-4.4541-3.8316-4.4541-4.7367-6.8846v-.80009l-4.6077-10.112-1.0071-4.3296-1.0071-4.3296 3.0218-2.2389 17.6-8.5567 12.8-3.939 10.8-1.9873v-1.3463l-5.6876-1.067-8.2667 1.0966-12.046 3.2927-18.158 7.0052h-1.3341l-.45075-1.4202-.45075-1.4202-.79127-6.2408-.79125-6.2409 1.4413-10.177 2.1864-4.8719 2.1864-4.8719 5.1155-4.4914 14-4.3649 17.047-2.2694 9.9994-.0312v-1.4674l-8.0788-1.7326-9.9212.01-16 2.4024-5.4495 1.0131.47627-4.0214.47626-4.0214 4.1181-9.784 5.72-8.9418 11.223-11.814 5.6049-1.0515 19.354 1.9382 6.4774 2.1256 5.2 1.073v-1.6114l-10-4.71-8-1.7029-12.585-1.1403.50265-3.6672.50264-3.6672 5.8557-8.8282 8.7553-8.556 7.1013-3.044h11.161l11.506 1.7731 2.5664 1.3582 8.6336 3.4012-4-4.2908-7.2-3.664-16.285-4.3747.79558-2.0925.79559-2.0926 2.9814-4.8178 15.097-14.8h8.3489l12.928 3.3008 6.2582 3.1927 1.7346-.57818-7.0541-5.7565-9.7146-3.9308-8.2854-1.9876v-1.3812l3.2-8.1185v-2.9655l13.171-3.554 7.322-3.8286 4.853-5.1928 3.3032-4.8354 1.2791-4.3999 1.2791-4.3999-2.4872-9.549-2.3171-3.6108-2.3171-3.6108-1.6742-1.7971-1.6742-1.7971h-3.9377v1.7888l5.0105 5.7066 1.4772 3.2523 1.4772 3.2523.043 5.6-1.4027 3.9131-1.4027 3.9131-3.0879 3.508-3.0879 3.508-6.8945 4.7436-9.2684 2.4141-16.864.0346-13.905 3.075-14.895 7.8507-10.4 7.2481-11.482 5.752-2.5184 3.5955v5.4275l4.2586 7.8245-.41317.41318-.41319.41318-7.7702-5.2344-1.5228-2.631-1.5228-2.631-.66891-5.9647-.66892-5.9647-1.6393-3.706-1.6393-3.706v-5.8252l2.0554-3.0248 2.0554-3.0248-4.214-10.741.25162-3.928.25162-3.928.8667-.28478.86671-.28477.93082 3.1068.93081 3.1068 6.5409 7.4309h3.9953l11.469-3.9414 10.4-2.6322 12-2.367 19.088-4.6124 5.7124-4.6099.48902-6.5763-6.6445-7.2085-8.2445-5.4581-11.2-5.8663-11.2-3.4362-17.6-.60693-5.6 1.6765-10.397 2.5073-19.464 9.463-6.5393 6.2207v4.9877l3.3563 8.9704-.8721.87212-5.6579-3.4968-1.5356-1.9521-1.5356-1.9521-.93504-3.8977-.93503-3.8977-6.1692-.9865-3.3158-4.2154v-11.091l-1.901-2.5466-1.901-2.5466-.98469-3.0716-.98469-3.0716.47915-2.3957.47913-2.3957 3.1337-4.4009 7.2793-3.8617v-4.9123l1.2536-4.2212 1.2536-4.2212 6.6008-7.1611 6.9557-4.0763 10.736-.74943-4.8 3.1198-4.4 4.1426v5.8869l7.2412 7.2412 29.959-1.033 15.2-2.4794 15.2-10.125 9.6-4.7941 8.5886-2.0253 15.892.76525.87087.87086.87085.87086-6.6221 7.5231v3.7747l3.2 3.2h8.5617l7.8383-4.1455 2.9704-2.6545 13.703-18.4 12.127-12.527 9.2843-5.6404 8.3157-2.214 10.533-.02 1.0668 1.0668-10.8 6.5014-14.421 14.432-4.2056 8.8-1.9267 9.3908.54264 3.7046.54265 3.7046 2.9276 6.6864 4.8608 2.5136 6.8795-.0702 5.9752-2.1327 10.897-6.4735 11.34-10.499 8.8591-11.624 2.3827-4.4 2.3827-4.4 2.1265-5.0822 2.1266-5.0822.99868-6.9178.99867-6.9178h1.4475l3.0332 9.6.1494 17.6-1.4247 6.4-1.4248 6.4-7.5213 15.2-6.512 8.8-8.7942 8.9218-9.44 7.2452-5.3671 3.033-8.2329 4.487-12 4.6001-6.8445 1.9795.22224.61865.22223.61864 5.5614 3.7338 6.0718 7.9623 4.1155 13.37-.79984 14.63-2.4366 12.229-2.4176 7.0855-2.4176 7.0855-4.6688 12-8.3669 20-6.3806 16 .75602 6.9195 4.7527 5.8805 4.8759 2.8571 7.8065.92456 10.168-2.6048 11.044-7.3419 4.3365-5.646 4.5612-5.3837.7194.44461.7194.44462v13.427l-1.8156 8.4788-4.8156 8.5389-3.9131 3.8519-3.9131 3.8519-9.9426 4.813-8 1.6682-11.774 1.85-1.513 1.513-1.5137 1.5125v3.2795l2.3464 4.5373 7.371 6.4882 11.339 5.7604 11.344 3.2825 7.2 1.8436 77.6-.21256 16.8-1.6507 30.4-2.4874 28-1.4047 20 1.3177 10.202 1.7282 11.613 3.7907 6.8358 3.4873h5.3484l8.4017-1.9695.8-.59098.8-.59097 6.4-2.0553 8.7005-4.6963 8.8995-5.6777 13.333-12.979 7.2115-10.833 5.4554-11.21.005-.97885.005-.97886 2.2394-4.2922 1.2886-5.3078.53517 5.6.53518 5.6-1.2093 16.8-4.3554 12.574-3.3001 5.8261-5.5647 8.6047-10.372 10.995h5.6211l18.615-4.8332 12.358-4.8916 10-5.2906v.64719l-1.895 2.9841-1.895 2.9841-11.071 12.8-16.739 13.999-.263.78903-.26301.78902 2.0933.95375 2.0933.95376 22.989-3.5382 14.55-4.5617v1.0615l-10 9.701-12.4 9.9556.014 1.0972 8.1204 9.4873 5.6281 8.7981 4.5971 11.481 2.6011 15.034-.51926 5.2-.51925 5.2-1.4694 7.2-1.4694 7.2-6.0456 22.4-.138 18.4 3.4651 6.4719 7.2006 6.6373 9.3343 4.6716 23.2 7.5982 16.481 6.1699 17.919 7.5666 28.8 14.553 9.6845 6.5772 9.0774 9.8046 4.2987 7.3352 6.1395 14.241v34.984l-4.1303 10.99-5.582 10.636-9.535 11.328-12.353 9.3335-8 4.4545-12.8 4.7794-12 2.4375-6.4 1.3614-29.6-.1046-12.4-2.2114zm-399.6-549.81-.51049-1.8-7.6181-11.2-4.0663-2.2947-7.6903 2.937-5.7122 5.2469 1.2.37271 1.2.37272 13.323 2.459 9.0768 5.5698 1.3078.1364-.5105-1.8zm228.98 480.4-1.2683-1.4015-.85569-2.2506-.85568-2.2506v-5.2054l2.3842-8.0286 2.4689-3.4082 2.4689-3.4082-.54374-5.8025-.54373-5.8025 2.6347-5.0949 7.154-3.4757-.27746-.83494-.27746-.83492-7.0684-1.1068-10.4-1.7739-4.8-.80359-7.2 3.6842-4.1824 8.5811-2.6176-3.7371v-6.0053l1.4-2.2804 1.4-2.2803 4.3589-5.1519 12.787-7.1907.47446-.7677.47447-.7677h3.9382l13.535 6.4h9.7121l4.8755-2.5212-1.2304-3.4788-.18014-11.377-.18014-11.377-7.311-8.3575-4.827-10.105-1.0374-4.1335-14.589-6.8439-9.185-5.6124-9.8006-6.9932-9.8144-7.9141-12.619-11.286-13.498-15.804-1.6334-4.1957.51836-6 .51837-6 1.6032-6.3144 1.6033-6.3144 2.3985-4.7513 2.3985-4.7513 6.8101-6.8102 8.9039-4.2122 14.997-.97762 12.8 1.5252 10.795 5.1199 8.7339 7.9823 4.4708 9.1041.0472 50.4 2.9122 6.4 2.6407 3.0075 6.3458 4.0308 10.521.75278 9.7661-4.9299 4.7547-5.7683.41419 1.0794.41418 1.0793-.63937 3.9742-.63937 3.9742-1.6264 4-4.7618 4.9536-8.7516 3.552 6.5024 14.694.0804 10.4-6.7802 15.651v5.4586l3.556 2.4907h6.0621l9.376-6.4h1.6025l7.0034 3.0974 12.8 1.1216 6 3.0135v2.5176l-8.1384-1.1193-7.2524 2.0306-2.1826 4.9386-2.4922 3.2-18.734.54326-2 1.6527v3.2027l5.6 12.403v5.9054l-4.202 5.5091.53426 3.341.53425 3.341 6.2117 9.3021h-3.3731l-6.5487-3.1702-13.956-15.277v-4.8041l2.4-5.744v-8.6046h-2.8189l-3.5811 11.776v1.5746l-6.6919 6.6257-2.054 4.2118-2.0541 4.2118-9.0337 4.8-3.5301 3.1962-2.4126 4.6655.35403 4.2691.35403 4.2692h-1.0836zm-191.28-6.8593-2.2971-2.2608.74414-13.078 5.075-9.6.78785-3.2864.78784-3.2865 9.576-5.9107 2.4346-2.0486 2.4346-2.0486-1.8418-2.2192h-11.884l-4.8929-2.5302-4.2277 1.0276-6.093 3.9868-1.5446 3.6033-1.5446 3.6033 3.061 8.7091h-1.4256l-5.5054-5.5054-1.084-4.9354 1.4028-4.4599 1.4028-4.4599 4.1305-6.1408 8.8-9.4446 4.6376-6.0664 12.962 1.2855 10.467.086 13.625-6.5376 5.7177-5.0202.93373-3.7082.93373-3.7082 3.3311-6.585 13.792-18.231 7.6194-10.569 2.6603-5.165-3.0796-3.4508-10.894-8.7276-2.5899-5.431 2.2841-4.28 14.4-11.133 14.4-6.865 9.6-2.4541 9.9588-1.0951 12.961 2.0162-.45257 1.8032-.45256 1.8032-5.8014 10.179-2.3877 6.8-2.3877 6.8.41396 4.1095.41396 4.1096 4.0358 6.3931 3.4492 2.804 3.4492 2.804 10.4 4.1223 8.3727 1.926-3.1459 2.2035-12.384 2.3694-24.043-.33709-17.6 4.3759-9.6 3.2315-6.5806 3.8271-5.0194 5.7168v5.4402l1.7744 4.5042.62635 5.4564.62635 5.4564 1.7972 1.913 1.7972 1.913 12.894.46113 3.2842 5.6.1348 17.6.60865 6.4.60866 6.4-1.5299 3.9852-2.2246-4.3926-2.2246-4.3926-1.9596-2.5714-1.9596-2.5714-8.1004-3.0217-2.5692-6.9551-4.7842-2.779-14.087-1.8632-5.6024 1.051-3.1107 3.1108v16.314l-4.4 6.3699-9.448 6.1161h-9.6468l-6.5745 3.1826-5.5307 5.6987-.8 14.719zm-208.5-150.6v-.45587l5.0485-7.3378 2.9515-7.7677v-5.688l-1.7211-3.2159-3.1191-3.1191-3.1191-3.1191-1.074-4.279 1.7362-4.8253 1.7362-4.8253 6.3609-10.072v-4.8955l-2.6914-4.3437-4.1086-4.5465-5.6-2.8482-12-2.7656-5.5088-2.6397-3.7598-7.587-.72155-6.3265-.72155-6.3265-1.1599-2.7761-1.1599-2.7761-6.9685-2.3427-7.2091 1.8694-3.9909 2.0504-7.8027 7.415.89476-5.9549 4.7951-6.8451 11.15-11.6h7.1173l4.6875 2.3384 4.6577 4.8616h2.9006v-6.9699l-5.4639-7.0301-8.7198-8.2955-.89613-3.5588-.89612-3.5588-5.4868-4.8174-5.8415-1.9279-5.8957 1.0849-7.0473 3.093-.6185-.6185 4.3996-5.2286 6.4662-2.9372 15.467-.0352 10.933 5.9148 7.3678 3.6362 3.5445 9.7212 4.924 5.6081 3.3237-.48032 2.0165-4 .0118-5.6644.0118-5.6644-1.9966-3.9356-1.9966-3.9356-.006-.4h2.2772l4.5228 3.8196 5.6 10.956.176 16.98 4.2239 6.2161v6.8488l-3.443 11.58-.69202 8.1742 3.3337 11.194 5.581 7.3092 4.4402 1.6613 4.44 1.6613h9.5221l12.307-3.3764 6.5109-3.2815 20-13.911 3.4948-1.8316h3.2108l1.0229 1.6551.74926 5.3725.74927 5.3724 4.1959 12.8 4.0041 8 4.1366 5.6 2.2182 2.3519 2.2182 2.3519v1.071l-6.4643 7.3438-6.7357 1.3279-.51923 7.1768-.51923 7.1768-3.4952 8.7983-5.677 6.928-5.3693 2.5604-.77406-.77406 1.7692-3.5564 1.7692-3.5564-.00124-12.8-3.9832-8-8.4198-3.0076-8.9227-9.6376-5.7958-2.9549h-3.6974l-7.3574-6.7819-9.1427.1242-.93205.57604-.93205.57603-.01 14.706-1.6063 5.7828-3.7522 4.0487-.8442 10.517-3.528 6.8515-2.5302 2.6714-2.5295 2.6715-7.5468 3.8571h-2.4532zm276.21-114.76-8.9893-.70321-20.421-4.1237-8.8-3.2577-4-2.6057 13.114-1.8824 6.8501-3.5705 4.836-4.0146 6.9044-8.2214 3.8713-7.4987 4.2751-10.901.1492-18.4-3.7986-6.0688-6.1376-3.1312h-7.0237l-6.5474 4.7429-6.4146 8.4571-2.8781 3.4-4.3876 2.7759-2.4124-.9257.0436-11.425.0436-11.425 1.0823-6.4 1.0823-6.4 3.1835-15.2 2.6901-8.8 4.1007-12 5.5328-14.4 10.172-20.398 2.1874-3.801 2.1875-3.801 11.884-18.28 10.495-13.72 13.207-15.2 20.507-20.173 12.177-10.227 10.035-7.8142 21.788-14.778 16-9.3248 25.629-12.883 7.9708-3.4769 13.109-5.7448 5.2914-.91023-4 3.4118-6.2629 4.1062-8.9371 4.7877-4.3248 2.3059-4.0357 4.7962-2.3717 7.9863-.87421 6.385-.87423 6.385.83261 5.9862.8326 5.9862 3.1009 9.1954 4.0284 7.2 7.6893 8.5841 17.597-4.247 8.8-2.2374 15.2-1.6518 8.3461-.60798-.42024.67998-.42025.67997h-1.9895l-19.359 5.4664-16.451 5.9164-6.7605 2.8979-.47927 1.5101-.47927 1.51-.72043 7.6147-.72042 7.6147.69446 5.9349.69446 5.9349 1.4426 4.8147 4.443 8.7678 9.0162 8.8174 6.8822 3.0968 21.081-4.4416 24.8-3.8296 9.2-.0256v1.5695l-4.4 1.0015-20.8 5.2962-16.8 5.0751-8.319 2.4984-1.6647 7.7622-1.2958 9.7985-1.2958 9.7985.45353 9.2.45354 9.2 2.2243 8 3.5133 6.8721 5.548 6.1409 4.3827 1.5884 8 1.7129 12 1.7898 16.331 4.9596-.66587 1.0774-9.2656-1.2608-22.4-.96087-17.298 26.081-12.046 17.6-2.3738 4.6678-2.3738 4.6677-.89036 7.5177 2.7341 2.2691 28.648.67618v1.3568l-9.2 2.7052-44.8-.1768-48.8-4.0976-36.8-4.0682-33.6-4.7581-.89554-.31469-.89554-.3147-2.7045 1.6164-2.7045 1.6164-4.5428 4.2369-2.3396 4.48.4402 1.3869.44019 1.3869 4.6134 2.7252 11.789 1.6971 40-1.9044 61.6-.1718 12.589 1.3542-2.1887 2.0524-52.8 2.5995-17.6 1.6243-28.979 1.5325-19.821.71962-8.9893-.70321zm147.15-22.386.60425-3.5931 1.5617-3.2 2.3291-5.8541 13.251-19.746 10.695-16 5.2947-9.4589-32.699 1.1218-21.6 2.2733-18.4 1.6885-22.4 3.3226-25.325 4.7767-14.675 3.7323-16 4.7948-8 3.4634-1.4 1.2668-1.4 1.2668v5.2814l10.8 6.2606 15.2 4.95 11.2 3.1638 9.6 1.8012 5.0301 1.5629 17.37 3.1014 25.6 4.1871 30.4 3.6845 1.179-.12744 1.179-.12743zm-106.72-50.701 6.9567-1.9078 23.2-4.9005 12-1.8146 5.6-1.3611 24.8-2.5551 9.6-1.772 47.604-.98099-6.4703-9.1155-2.0451-5.8422-2.0451-5.8422-.82886-19.2.96624-7.2.96625-7.2.85128-8.4h-1.1463l-12.252 4.2641-1.6 1.1274-6.4 1.9975-4.8 2.0757-16 6.6614-8.8 4.1111-14.4 6.6964-28.929 16.146-13.471 9.1907-12 9.1233-10.32 9.2378-2.6401 3.16-2.6401 3.16v1.982l.53334.53332.53333.53334h6.22zm-27.443-12.316 4.8-2.8705 17.6-12.174 8.8-5.683 11.494-7.4349 18.906-11.285 33.6-16.553 7.5826-3.3759h.90523l6.7122-3.0195 15.2-5.6156 13.6-4.3262 4.7795-2.0014-4.7795-2.5072-8.8-7.5556-1.9854-2.8873-1.9854-2.8873-1.7718-3.787-1.7718-3.787-.95018-4.8296-.95016-4.8296.38458-9.9833.38459-9.9833h-.54956l-12.405 6.5873-11.2 6.4274-15.2 8.9138-.8.87149-8 5.4549-9.0532 6.1855-21.347 17.762-17.344 16.998-16.436 19.565-9.4197 13.711-3.0718 4.9605-3.0719 4.9605-5.2986 9.603-1.0238 4.922.82743 2.1763.82742 2.1763 6.0112-1.0276zm-26.657-14.376 2.0424-2.2 8.9311-12.891 21.284-25.503 24-24.062 14.4-12.091 15.455-11.853 11.745-8.1555 16.8-10.059 20-9.9956 8.8-3.6515 1.4347-1.2531-7.2852-7.0804-2.1015-3.3289-2.1015-3.3289-2.1465-5.7735-2.1465-5.7735-.0534-21.6.69303-4.3305.69302-4.3305-7.786 4.5044-17.6 12.078-16 11.918-19.2 16.37-20.317 20.591-13.606 16.613-6.7896 9.7873-8.1773 12-8.0524 14.4-7.2676 15.233-5.6387 13.622-2.905 8.7728-2.905 8.7728-2.4133 9.311 1.0684 3.489 1.6001 2h3.5047zm-234.54-28.601-3.6-1.1962-4-3.1674 18.4-.0738 5.6-1.4265 11.659-3.3572 13.941-7.3208 10.735-8.1216 8.2349-10.15 10.333-9.4686 13.601-6.7374 9.8961-2.1238 13.6-.0284 10.815 2.2919 9.9846 3.5702 6.776 4.5705.812 1.5172.81199 1.5172v3.2747l-4.3408 1.0895-25.865-3.6908-18.195.90893-11.22 3.2232-7.9798 4.449-14.4 14.468-11.2 7.3956-9.6 4.7988-13.6 4.3555-17.6.62775-3.6-1.1962z" stroke-width=".8"/></svg>
