<?xml version="1.0" encoding="UTF-8"?>
<svg xmlns="http://www.w3.org/2000/svg" xmlns:xlink="http://www.w3.org/1999/xlink" width="2834.88" height="2834.88" viewBox="0 0 2834.88 2834.88">
<path fill-rule="evenodd" fill="rgb(0%, 0%, 0%)" fill-opacity="1" d="M 1383.738281 1915.871094 C 1391.371094 1872.34375 1407.988281 1824.339844 1439.03125 1783.300781 C 1511.511719 1687.46875 1618.28125 1587.570312 1709.261719 1502.839844 C 1594.5 1449.820312 1302.101562 1696.558594 1176.488281 1549.519531 C 1283.730469 1561.140625 1468.28125 1397.648438 1585 1415.148438 C 1560.601562 1408.261719 1548.628906 1404.898438 1518.25 1408.609375 C 1265.308594 1439.421875 1111.660156 1620.960938 930.9375 1471.050781 C 1087.601562 1461.101562 1233.679688 1324.53125 1483.050781 1311.21875 C 1175.238281 1283.960938 981.351562 1525.039062 737.007812 1284.960938 C 925.882812 1324.589844 1218.460938 1190.191406 1467.140625 1204.890625 C 1324.078125 1143.359375 698.625 1346.699219 548.074219 1045.949219 C 814.96875 1118.320312 1204.320312 1029.179688 1453.101562 1106.710938 C 1197.46875 972.410156 538.71875 1174.800781 411.929688 680.410156 C 615.769531 844.738281 978.378906 890.808594 1292.558594 921.261719 C 1378.820312 929.609375 1462.601562 950.46875 1537.019531 955.78125 C 1483.769531 942.96875 1414.820312 921.011719 1374.25 903.46875 C 1468.539062 912.089844 1619.378906 926.878906 1711.019531 965.308594 C 1806.589844 1005.371094 1846.089844 1102.78125 1792.28125 1194.050781 C 1755.539062 1256.351562 1797.761719 1291.089844 1857.128906 1308.589844 C 1894.75 1304.960938 1963.171875 1137.71875 1962.71875 1089.648438 C 1939.351562 1090.53125 1925.859375 1092.53125 1895.828125 1083.28125 C 1829.929688 1062.988281 1821.5 983.351562 1821.5 983.351562 C 1821.5 983.351562 1864.820312 1031.480469 1901.78125 1011.160156 C 1899.929688 1007.398438 1870.539062 980.800781 1857.101562 945.859375 C 1829.429688 873.921875 1854.949219 806.011719 1854.949219 806.011719 C 1854.949219 806.011719 1875.890625 900.238281 1942.21875 897.761719 C 1985.53125 896.140625 2245.160156 846.269531 2293.371094 864.378906 C 2369.191406 892.871094 2346.949219 956.089844 2346.949219 956.089844 C 2346.949219 956.089844 2408.378906 969.960938 2420.03125 1022.929688 C 2431.671875 1075.898438 2401.730469 1127.550781 2401.730469 1127.550781 C 2401.730469 1127.550781 2404.179688 1100.328125 2379.621094 1086.28125 C 2355.058594 1072.230469 2278.691406 1082.429688 2260.058594 1093.320312 C 2280.371094 1130.78125 2361.339844 1294.96875 2345.828125 1433.421875 C 2326.828125 1602.988281 2253.160156 1655.78125 2253.160156 1655.78125 C 2253.160156 1655.78125 2212.769531 1833.191406 2224.570312 1917.480469 C 2236.371094 2001.765625 2239.699219 2061.753906 2239.699219 2061.753906 C 2239.699219 2061.753906 2321.769531 2051.515625 2357.171875 2085.230469 C 2392.570312 2118.945312 2381.308594 2154.46875 2381.308594 2154.46875 L 2147.03125 2153.484375 C 2147.03125 2153.484375 2136.910156 2018.625 2130.171875 1976.480469 C 2123.429688 1934.339844 2079.601562 1834.878906 2072.859375 1802.851562 C 2066.109375 1770.820312 2059.109375 1761.238281 2059.109375 1761.238281 C 2059.109375 1761.238281 2052.898438 1747.441406 2029.421875 1730.171875 C 2005.941406 1712.910156 1981.78125 1709.460938 1981.78125 1709.460938 C 1981.78125 1709.460938 2017.769531 1732.058594 2034.339844 1756.230469 C 2050.910156 1780.390625 2047.371094 1788.171875 2047.371094 1788.171875 C 1957.460938 1812.289062 1873.011719 1845.152344 1811.429688 1914.605469 C 1811.429688 1914.605469 1826.101562 1949.992188 1818.339844 1988.832031 C 1810.570312 2027.671875 1764.820312 2079.457031 1764.820312 2079.457031 C 1764.820312 2079.457031 1849.148438 2072.203125 1888.261719 2078.945312 C 1927.371094 2085.691406 1934.21875 2111.257812 1934.21875 2111.257812 L 1946.351562 2153.066406 L 1512.828125 2152.253906 C 1512.828125 2152.253906 1459.621094 2145.949219 1435.96875 2130.210938 C 1407.910156 2111.539062 1395.628906 2076.472656 1383.101562 2024.785156 C 1381.421875 2017.878906 1380.078125 2009.285156 1379.261719 1999.382812 C 1331.449219 2012.683594 1267.921875 2026.476562 1232.359375 2018.25 C 1182.320312 2006.675781 1164.238281 1959.988281 1171.03125 1906.640625 C 1177.820312 1853.292969 1239.558594 1788.160156 1243.839844 1758.96875 C 1247.828125 1731.71875 1230.160156 1724.960938 1230.160156 1724.960938 C 1230.160156 1724.960938 1134.820312 1754.808594 1092.738281 1704.011719 C 1061.429688 1666.210938 1063.609375 1619.941406 1063.609375 1619.941406 C 1063.609375 1619.941406 1074.980469 1642.710938 1086.480469 1655.140625 C 1097.640625 1667.179688 1107.371094 1669.03125 1107.371094 1669.03125 C 1107.371094 1669.03125 1083.769531 1640.820312 1080.859375 1619.179688 C 1077.949219 1597.539062 1083.011719 1592.46875 1083.011719 1592.46875 C 1083.011719 1592.46875 1085.148438 1636.78125 1139.269531 1638.058594 C 1171.328125 1638.820312 1204.339844 1624.921875 1232.390625 1650.671875 C 1250.578125 1667.371094 1257.609375 1696.558594 1257.609375 1696.558594 C 1257.609375 1696.558594 1302.769531 1727.199219 1271.191406 1795.929688 C 1239.898438 1864.019531 1215.898438 1950.699219 1250.820312 1954.578125 C 1278.738281 1957.679688 1338.921875 1940.316406 1383.738281 1915.871094 "/>
</svg>
